<?xml version="1.0" encoding="utf-8"?>
<!-- Generator: Adobe Illustrator 18.0.0, SVG Export Plug-In . SVG Version: 6.00 Build 0)  -->
<!DOCTYPE svg PUBLIC "-//W3C//DTD SVG 1.1//EN" "http://www.w3.org/Graphics/SVG/1.1/DTD/svg11.dtd">
<svg version="1.1" id="Layer_1" xmlns="http://www.w3.org/2000/svg" xmlns:xlink="http://www.w3.org/1999/xlink" x="0px" y="0px"
	 viewBox="0 0 378.5 378.5" enable-background="new 0 0 378.5 378.5" xml:space="preserve">
<path fill="#252525" d="M107.6,233.7c0,9.3,0,18.6,0,27.9c0,0.7-0.1,0.9-0.9,0.9c-5.2,0-10.3,0-15.5,0c-0.6,0-0.7-0.1-0.7-0.7
	c0-17.2,0-34.4,0-51.6c0-0.5,0.1-0.7,0.6-0.9c5.2-1.4,10.5-2.9,15.7-4.3c0.7-0.2,0.7,0,0.7,0.6C107.6,215,107.6,224.3,107.6,233.7z"
	/>
<circle fill="#4C4C4C" stroke="#3A3A3A" stroke-width="3" stroke-miterlimit="10" cx="99.1" cy="189.3" r="10.8"/>
<path fill="#252525" d="M139.4,204.4c4.2,0,7.8,0.7,10.9,2c3.1,1.3,5.6,3.2,7.6,5.7c2,2.5,3.5,5.5,4.5,9.2c1,3.6,1.5,7.7,1.5,12.3
	c0,4.6-0.5,8.7-1.5,12.3c-1,3.6-2.5,6.7-4.4,9.2c-2,2.5-4.5,4.4-7.6,5.7c-3.1,1.3-7.7,2-11.9,2c-4.2,0-6.8-0.7-9.9-2
	c-3.1-1.3-5.6-3.2-7.6-5.7c-2-2.5-3.5-5.5-4.4-9.2c-1-3.6-1.5-7.7-1.5-12.3c0-4.6,0.5-8.7,1.5-12.3c1-3.6,2.5-6.7,4.4-9.2
	c2-2.5,4.5-4.4,7.6-5.7C131.6,205,135.3,204.4,139.4,204.4z M139.9,212.3c-2.4,0-4.1,1.7-5.2,5.1c-1.1,3.4-1.7,8.6-1.7,15.7
	c0,7.2,0.6,12.4,1.7,15.8c1.1,3.3,2.8,5,5.2,5c2.4,0,4.2-1.7,5.3-5.1c1.1-3.4,1.7-8.6,1.7-15.7c0-7.1-0.6-12.3-1.7-15.7
	C144,214,142.3,212.3,139.9,212.3z"/>
<g>
	<path fill="#252525" d="M61.9,208.8c3.8,0,7.2,0.6,10,1.8c2.8,1.2,5.1,3,7,5.2c1.8,2.3,3.2,5.1,4.1,8.4c0.9,3.3,1.3,7.1,1.3,11.3
		c0,4.2-0.4,8-1.3,11.3c-0.9,3.3-2.3,6.1-4.1,8.4c-1.8,2.3-4.1,4-7,5.2c-2.8,1.2-5,1.8-8.9,1.8c-5.5,0-13.3-5.6-16.1-6.8
		c-2.8-1.2,1.9,2,0-0.2c-1.8-2.3-3.2-5.1-4.1-8.4c-0.9-3.3-1.3-7.1-1.3-11.3c0-4.2,0.4-8,1.3-11.3c0.9-3.3-5.7-6.1-3.9-8.4
		c1.8-2.3,4.1,0,7-1.2C48.7,213.4,58.1,208.8,61.9,208.8z M62.3,216.1c-2.2,0-7.8,3.6-8.8,6.7c-1,3.1-0.7,6.3-0.7,12.8
		c0,6.6-0.3,9.1,0.7,12.1c1,3.1,6.6,6.6,8.8,6.6c2.2,0,3.8-1.5,4.8-4.6c1-3.1,1.5-7.9,1.5-14.4c0-6.5-0.5-11.3-1.5-14.4
		C66.1,217.6,64.5,216.1,62.3,216.1z"/>
	<path fill="#252525" d="M52.8,220.7c0,13.6,0,27.1,0,40.7c0,0.7-0.2,0.9-0.9,0.9c-5.1,0-10.3,0-15.4,0c-0.6,0-0.7-0.1-0.7-0.7
		c0-25.7,0-51.4,0-77.1c0-0.5,0.1-0.8,0.7-0.9c5.2-1.4,10.3-2.8,15.5-4.3c0.7-0.2,0.9-0.1,0.9,0.6C52.8,193.5,52.8,207.1,52.8,220.7
		z"/>
</g>
<g>
	<g>
		<line fill="#6BAB5B" x1="321" y1="347.8" x2="337.4" y2="298.7"/>
		<polygon fill="#3B972E" points="316.6,347.3 332.9,298.2 341.8,299.2 325.5,348.2 		"/>
	</g>
	<g>
		<line fill="#AA7DC0" x1="306.9" y1="301.2" x2="298.3" y2="351.2"/>
		<polygon fill="#945BB0" points="293.8,350.9 302.4,300.8 311.4,301.5 302.8,351.5 		"/>
	</g>
	<g>
		<line fill="#D66661" x1="273.4" y1="345.9" x2="275" y2="321.2"/>
		<polygon fill="#C93D39" points="268.9,345.7 270.5,321 279.5,321.4 277.9,346.1 		"/>
	</g>
	<g>
		<line fill="#6BAB5B" x1="226.3" y1="344.2" x2="223.3" y2="316.7"/>
		<polygon fill="#3B972E" points="218.8,316.7 227.8,316.7 230.8,344.2 221.8,344.1 		"/>
	</g>
	<g>
		<line fill="#AA7DC0" x1="194.1" y1="302.7" x2="201.8" y2="352.8"/>
		<polygon fill="#945BB0" points="189.7,302.8 198.6,302.7 206.3,352.7 197.3,352.8 		"/>
	</g>
	<g>
		<line fill="#D66661" x1="165.5" y1="294.8" x2="173.9" y2="350.5"/>
		<polygon fill="#C93D39" points="161.1,294.9 170,294.8 178.4,350.4 169.5,350.5 		"/>
	</g>
	<g>
		<line fill="#6B85DD" x1="144.4" y1="330.7" x2="140.4" y2="300.7"/>
		<polygon fill="#4266D5" points="135.9,300.7 144.9,300.7 148.9,330.7 139.9,330.8 		"/>
	</g>
	<g>
		<line fill="#6BAB5B" x1="95.3" y1="300" x2="90.3" y2="330.3"/>
		<polygon fill="#945BB0" points="85.8,330 90.8,299.7 99.8,300.3 94.7,330.6 		"/>
	</g>
	<g>
		<line fill="#C93D39" x1="60.9" y1="343.6" x2="69.4" y2="293.6"/>
		<polygon fill="#C93D39" points="56.4,343.3 64.9,293.3 73.9,294 65.4,343.9 		"/>
	</g>
	<g>
		<line fill="#4266D5" x1="51" y1="294.7" x2="30.7" y2="347.2"/>
		<polygon fill="#4266D5" points="26.2,346.7 46.6,294.2 55.5,295.3 35.1,347.8 		"/>
	</g>
	<path fill="#252525" d="M14.2,353.8l1.9-8.8c32.9,2.7,67.1-17,94.5-32.8c19.6-11.3,35.1-20.3,50-21.6c35.8-3.2,59.6,15.5,80.6,31.9
		c15.8,12.4,32.1,25.2,49.9,26.6c8.9,0.7,22.3-4,27.3-6.4l12.8,6.7c-2.2,1-22.2,10.2-42.1,8.5c-26.3-2.2-45-16.8-63.1-31
		c-19.5-15.3-37.8-29.7-61.4-27.6c-8.9,0.8-25.5,10.4-40.2,18.8C94.4,335.6,56.9,357.3,14.2,353.8z"/>
	<path fill="#252525" d="M43.6,290.5c19.6-4.1,41.1-0.6,63.9,10.4c17.9,8.7,34.2,20.7,47.4,30.4c8.9,6.6,19.1,14.1,23.6,15.4
		c7.8,2.4,20.6,4.6,42.2-4.3c16.2-6.6,32.1-17.3,46.2-26.7c18.1-12.1,32.4-21.6,46.6-23.4c14.5-1.8,32.5,0.4,34.5,0.7l-3.6,8.7
		l1.8-4.3l-1.8,4.3c-4.2-0.5-17.1-1.7-25.6-0.6c-8.4,1.1-23.7,11.3-37.3,20.3c-14.6,9.8-31.2,20.9-48.9,28.1
		c-22.4,9.2-43.6,10.8-63,4.7c-7.6-2.4-15.7-8.2-29.4-18.3c-23.5-17.3-59-43.5-88.7-37.2L43.6,290.5z"/>
</g>
<g>
	<circle fill="#6B85DD" stroke="#4266D5" stroke-width="3" cx="181.1" cy="188.9" r="10.8"/>
	<circle fill="#D66661" stroke="#C93D39" stroke-width="3" cx="287.5" cy="189.9" r="10.8"/>
	<circle fill="#6BAB5B" stroke="#3B972E" stroke-width="3" cx="301.6" cy="166" r="10.8"/>
	<circle fill="#AA7DC0" stroke="#945BB0" stroke-width="3" cx="315.8" cy="189.7" r="10.8"/>
	<path fill="#252525" d="M172.3,241.3c0-10.4,0-20.8,0-31.2c0-0.5,0.1-0.8,0.7-1c5.2-1.4,10.3-2.8,15.5-4.3c0.9-0.2,0.9-0.2,0.9,0.7
		c0,16.9,0,33.9,0,50.8c0,3.6,0.2,7.3-0.2,10.9c-0.4,4.4-1.4,8.6-4.2,12.2c-2.5,3.1-5.8,4.8-9.7,5.5c-4.3,0.8-8.7,1-13.1,0.6
		c-3-0.3-5.9-1-8.4-2.9c-1.9-1.4-2.9-3.2-2.5-5.7c0.5-2.5,2.2-3.9,4.5-4.7c1.5-0.5,3-0.6,4.6-0.3c1.2,0.2,2.2,0.7,3.1,1.5
		c0.9,0.8,1.7,1.8,2.5,2.7c0.6,0.8,1.2,1.5,2,2c1.4,0.9,2.6,0.6,3.4-0.8c0.5-1,0.7-2,0.8-3.1c0.2-1.5,0.2-3.1,0.2-4.6
		C172.3,260.2,172.3,250.7,172.3,241.3z"/>
	<path fill="#252525" d="M230.4,257.1c-1.9,1.6-3.8,2.8-5.8,3.9c-6.8,3.5-13.5,3-19.9-0.8c-4.4-2.6-7.2-6.5-8.2-11.6
		c-0.2-0.8-0.2-1.6-0.2-2.4c0-13,0-26,0-39c0-0.7,0.2-0.9,0.9-0.9c5.1,0,10.3,0,15.4,0c0.6,0,0.8,0.2,0.8,0.8c0,12.7,0,25.5,0,38.2
		c0,4.2,2.4,7.2,6.4,8.2c1.4,0.3,2.8,0.3,4.1-0.4c2.8-1.4,4.9-3.6,6.7-6.1c0.2-0.3,0.1-0.7,0.1-1c0-12.9,0-25.8,0-38.7
		c0-0.7,0.2-0.9,0.9-0.9c5.2,0,10.3,0,15.5,0c0.6,0,0.7,0.2,0.7,0.7c0,18.2,0,36.4,0,54.6c0,0.6-0.2,0.7-0.7,0.7
		c-5.2,0-10.4,0-15.6,0c-0.5,0-0.7-0.1-0.7-0.7C230.4,260.2,230.4,258.7,230.4,257.1z"/>
	<path fill="#252525" d="M271.1,220.7c0,13.6,0,27.1,0,40.7c0,0.7-0.2,0.9-0.9,0.9c-5.1,0-10.3,0-15.4,0c-0.6,0-0.7-0.1-0.7-0.7
		c0-25.7,0-51.4,0-77.1c0-0.5,0.1-0.8,0.7-0.9c5.2-1.4,10.3-2.8,15.5-4.3c0.7-0.2,0.9-0.1,0.9,0.6
		C271.1,193.5,271.1,207.1,271.1,220.7z"/>
	<path fill="#252525" d="M294.8,233.4c0,9.3,0,18.6,0,27.9c0,0.7-0.1,0.9-0.9,0.9c-5.2,0-10.3,0-15.5,0c-0.6,0-0.7-0.1-0.7-0.7
		c0-17.2,0-34.4,0-51.6c0-0.5,0.1-0.7,0.6-0.9c5.2-1.4,10.5-2.9,15.7-4.3c0.7-0.2,0.7,0,0.7,0.6
		C294.8,214.7,294.8,224.1,294.8,233.4z"/>
	<path fill="#252525" d="M330.4,257.9c-0.5,0.4-0.9,0.7-1.3,1.1c-2.9,2.5-6.2,3.9-10,4.2c-3.8,0.3-7.5,0.2-11.1-1.3
		c-7.9-3.3-10.2-11.3-7.8-18c1.2-3.4,3.6-5.8,6.5-7.8c3.7-2.6,7.9-4.4,12.2-6c3.7-1.3,7.4-2.6,11.1-3.5c0.3-0.1,0.5-0.2,0.5-0.6
		c-0.1-2.9,0.2-5.8-0.3-8.7c-0.8-4.7-4.3-6.6-8.5-6.1c-0.3,0-0.7,0.1-1,0.2c-3.2,0.7-4.8,2.9-4.8,6.7c0,1.1-0.2,2.2-0.5,3.3
		c-0.6,2.1-2,3.5-4.1,4.1c-2.2,0.6-4.5,0.7-6.7-0.2c-4.3-1.7-5.8-6.7-3.4-10.9c1.5-2.5,3.7-4.2,6.2-5.5c4.1-2.1,8.5-3.3,13.1-3.6
		c5-0.4,9.9-0.2,14.8,1c2.8,0.7,5.5,1.8,7.7,3.7c2.9,2.5,4.5,5.7,4.5,9.4c0.1,14.1,0.1,28.2,0.1,42.4c0,0.5-0.2,0.6-0.7,0.6
		c-5.3,0-10.6,0-15.9,0c-0.5,0-0.6-0.1-0.6-0.6C330.5,260.5,330.4,259.2,330.4,257.9z M330.4,233.4c-3.2,1.4-6.1,2.9-8.7,4.9
		c-1.4,1.1-2.7,2.3-3.8,3.7c-2.8,3.4-1.3,8.8,1.1,10.9c1,0.9,2.2,1.3,3.6,1c1.1-0.2,2.1-0.6,3-1.1c1-0.6,1.9-1.4,3-1.9
		c1.5-0.8,2-1.9,1.9-3.6C330.3,242.7,330.4,238.1,330.4,233.4z"/>
</g>
</svg>
