<?xml version="1.0" encoding="UTF-8" standalone="no"?>
<svg width="615px" height="179px" viewBox="0 0 615 179" version="1.1" xmlns="http://www.w3.org/2000/svg" xmlns:xlink="http://www.w3.org/1999/xlink" xmlns:sketch="http://www.bohemiancoding.com/sketch/ns">
    <!-- Generator: Sketch 3.3.2 (12043) - http://www.bohemiancoding.com/sketch -->
    <title>B-Tree</title>
    <desc>Created with Sketch.</desc>
    <defs></defs>
    <g id="Page-1" stroke="none" stroke-width="1" fill="none" fill-rule="evenodd" sketch:type="MSPage">
        <g id="B-Tree" sketch:type="MSLayerGroup" stroke="#979797">
            <rect id="Rectangle-11" fill="#D8D8D8" sketch:type="MSShapeGroup" x="0" y="149" width="30" height="30"></rect>
            <rect id="Rectangle-11-Copy" fill="#D8D8D8" sketch:type="MSShapeGroup" x="30" y="149" width="30" height="30"></rect>
            <rect id="Rectangle-11-Copy-3" fill="#D8D8D8" sketch:type="MSShapeGroup" x="60" y="149" width="30" height="30"></rect>
            <rect id="Rectangle-11-Copy-2" fill="#D8D8D8" sketch:type="MSShapeGroup" x="90" y="149" width="30" height="30"></rect>
            <rect id="Rectangle-11-Copy-7" fill="#D8D8D8" sketch:type="MSShapeGroup" x="120" y="149" width="30" height="30"></rect>
            <rect id="Rectangle-11-Copy-6" fill="#D8D8D8" sketch:type="MSShapeGroup" x="150" y="149" width="30" height="30"></rect>
            <rect id="Rectangle-11-Copy-5" fill="#D8D8D8" sketch:type="MSShapeGroup" x="180" y="149" width="30" height="30"></rect>
            <rect id="Rectangle-11-Copy-4" fill="#D8D8D8" sketch:type="MSShapeGroup" x="210" y="149" width="30" height="30"></rect>
            <rect id="Rectangle-11-Copy-23" fill="#D8D8D8" sketch:type="MSShapeGroup" x="256" y="0" width="30" height="30"></rect>
            <rect id="Rectangle-11-Copy-22" fill="#D8D8D8" sketch:type="MSShapeGroup" x="285.5" y="0" width="30" height="30"></rect>
            <rect id="Rectangle-11-Copy-21" fill="#D8D8D8" sketch:type="MSShapeGroup" x="315.5" y="0" width="30" height="30"></rect>
            <rect id="Rectangle-11-Copy-20" fill="#D8D8D8" sketch:type="MSShapeGroup" x="345.5" y="0" width="30" height="30"></rect>
            <rect id="Rectangle-11-Copy-19" fill="#D8D8D8" sketch:type="MSShapeGroup" x="375.5" y="0" width="30" height="30"></rect>
            <rect id="Rectangle-11-Copy-18" fill="#D8D8D8" sketch:type="MSShapeGroup" x="405.5" y="0" width="30" height="30"></rect>
            <rect id="Rectangle-11-Copy-17" fill="#D8D8D8" sketch:type="MSShapeGroup" x="435.5" y="0" width="30" height="30"></rect>
            <rect id="Rectangle-11-Copy-16" fill="#D8D8D8" sketch:type="MSShapeGroup" x="465.5" y="0" width="30" height="30"></rect>
            <rect id="Rectangle-11-Copy-15" fill="#D8D8D8" sketch:type="MSShapeGroup" x="311" y="149" width="30" height="30"></rect>
            <rect id="Rectangle-11-Copy-14" fill="#D8D8D8" sketch:type="MSShapeGroup" x="341" y="149" width="30" height="30"></rect>
            <rect id="Rectangle-11-Copy-13" fill="#D8D8D8" sketch:type="MSShapeGroup" x="371" y="149" width="30" height="30"></rect>
            <rect id="Rectangle-11-Copy-12" fill="#D8D8D8" sketch:type="MSShapeGroup" x="401" y="149" width="30" height="30"></rect>
            <rect id="Rectangle-11-Copy-11" fill="#D8D8D8" sketch:type="MSShapeGroup" x="431" y="149" width="30" height="30"></rect>
            <rect id="Rectangle-11-Copy-10" fill="#D8D8D8" sketch:type="MSShapeGroup" x="461" y="149" width="30" height="30"></rect>
            <rect id="Rectangle-11-Copy-9" fill="#D8D8D8" sketch:type="MSShapeGroup" x="491" y="149" width="30" height="30"></rect>
            <rect id="Rectangle-11-Copy-8" fill="#D8D8D8" sketch:type="MSShapeGroup" x="521" y="149" width="30" height="30"></rect>
            <path d="M249.5,163.5 L304.5,163.5" id="Line" stroke-linecap="square" sketch:type="MSShapeGroup"></path>
            <path id="Line-decoration-1" d="M304.5,163.5 L293.7,160.5 L293.7,166.5 L304.5,163.5 Z" stroke-linecap="square"></path>
            <path d="M559.5,163.5 L614.5,163.5" id="Line-Copy" stroke-linecap="square" sketch:type="MSShapeGroup"></path>
            <path id="Line-Copy-decoration-1" d="M614.5,163.5 L603.7,160.5 L603.7,166.5 L614.5,163.5 Z" stroke-linecap="square"></path>
            <path d="M258.5,40.5 L109.5,133.5" id="Line" stroke-linecap="square" sketch:type="MSShapeGroup"></path>
            <path id="Line-decoration-1" d="M109.5,133.5 L120.250296,130.326494 L117.073373,125.236586 L109.5,133.5 Z" stroke-linecap="square"></path>
            <path d="M287.5,40.5 L433.5,129.5" id="Line-Copy-2" stroke-linecap="square" sketch:type="MSShapeGroup"></path>
            <path id="Line-Copy-2-decoration-1" d="M433.5,129.5 L425.839827,121.316984 L422.716806,126.440142 L433.5,129.5 Z" stroke-linecap="square"></path>
        </g>
    </g>
</svg>