<?xml version="1.0" encoding="UTF-8" standalone="no"?>
<!DOCTYPE svg PUBLIC "-//W3C//DTD SVG 1.1//EN"
 "http://www.w3.org/Graphics/SVG/1.1/DTD/svg11.dtd">
<!-- Generated by graphviz version 2.38.0 (20140413.2041)
 -->
<!-- Title: fasta Pages: 1 -->
<svg width="1760pt" height="250pt"
 viewBox="0.00 0.00 1759.70 250.00" xmlns="http://www.w3.org/2000/svg" xmlns:xlink="http://www.w3.org/1999/xlink">
<g id="graph0" class="graph" transform="scale(1 1) rotate(0) translate(4 246)">
<title>fasta</title>
<polygon fill="white" stroke="none" points="-4,4 -4,-246 1755.7,-246 1755.7,4 -4,4"/>
<!-- ENTRY -->
<g id="node1" class="node"><title>ENTRY</title>
<ellipse fill="black" stroke="black" cx="1.8" cy="-159" rx="1.8" ry="1.8"/>
</g>
<!-- 6 -->
<g id="node5" class="node"><title>6</title>
<ellipse fill="none" stroke="black" cx="95.0932" cy="-140" rx="23.5" ry="23.5"/>
<ellipse fill="none" stroke="black" cx="95.0932" cy="-140" rx="27.5" ry="27.5"/>
<text text-anchor="middle" x="95.0932" y="-135.8" font-family="Times,serif" font-size="14.00">6</text>
</g>
<!-- ENTRY&#45;&gt;6 -->
<g id="edge23" class="edge"><title>ENTRY&#45;&gt;6</title>
<path fill="none" stroke="black" d="M3.82527,-158.787C9.22734,-157.662 34.9965,-152.299 57.6261,-147.59"/>
<polygon fill="black" stroke="black" points="58.641,-150.953 67.718,-145.489 57.2146,-144.1 58.641,-150.953"/>
<text text-anchor="middle" x="35.5966" y="-157.8" font-family="Times,serif" font-size="14.00">IN</text>
</g>
<!-- en_6 -->
<g id="node2" class="node"><title>en_6</title>
<ellipse fill="black" stroke="black" cx="1.8" cy="-122" rx="1.8" ry="1.8"/>
</g>
<!-- en_6&#45;&gt;6 -->
<g id="edge24" class="edge"><title>en_6&#45;&gt;6</title>
<path fill="none" stroke="black" d="M3.97331,-121.879C9.30138,-121.361 31.7301,-119.506 49.5932,-123 53.0249,-123.671 56.537,-124.584 60.0092,-125.641"/>
<polygon fill="black" stroke="black" points="58.9948,-128.993 69.5894,-128.919 61.261,-122.37 58.9948,-128.993"/>
<text text-anchor="middle" x="35.5966" y="-125.8" font-family="Times,serif" font-size="14.00">main</text>
</g>
<!-- eof_7 -->
<g id="node3" class="node"><title>eof_7</title>
<ellipse fill="black" stroke="black" cx="1578.06" cy="-165" rx="1.8" ry="1.8"/>
</g>
<!-- eof_8 -->
<g id="node4" class="node"><title>eof_8</title>
<ellipse fill="black" stroke="black" cx="1749.9" cy="-70" rx="1.8" ry="1.8"/>
</g>
<!-- 6&#45;&gt;6 -->
<g id="edge12" class="edge"><title>6&#45;&gt;6</title>
<path fill="none" stroke="black" d="M90.4102,-167.543C90.3095,-177.435 91.8705,-185.5 95.0932,-185.5 97.1073,-185.5 98.4724,-182.35 99.1884,-177.572"/>
<polygon fill="black" stroke="black" points="102.685,-177.731 99.7761,-167.543 95.6969,-177.322 102.685,-177.731"/>
<text text-anchor="middle" x="95.0932" y="-188.3" font-family="Times,serif" font-size="14.00">&#39;\t&#39;, &#39;\v&#39;..&#39;\r&#39;, SP</text>
</g>
<!-- 6&#45;&gt;6 -->
<g id="edge13" class="edge"><title>6&#45;&gt;6</title>
<path fill="none" stroke="black" d="M86.68,-166.422C84.0368,-185.051 86.8412,-203.5 95.0932,-203.5 101.798,-203.5 104.906,-191.321 104.419,-176.761"/>
<polygon fill="black" stroke="black" points="107.872,-176.075 103.506,-166.422 100.899,-176.691 107.872,-176.075"/>
<text text-anchor="middle" x="95.0932" y="-206.3" font-family="Times,serif" font-size="14.00">&#39;\n&#39; / count_line</text>
</g>
<!-- 1 -->
<g id="node8" class="node"><title>1</title>
<ellipse fill="none" stroke="black" cx="195.034" cy="-140" rx="23.5" ry="23.5"/>
<text text-anchor="middle" x="195.034" y="-135.8" font-family="Times,serif" font-size="14.00">1</text>
</g>
<!-- 6&#45;&gt;1 -->
<g id="edge14" class="edge"><title>6&#45;&gt;1</title>
<path fill="none" stroke="black" d="M122.597,-140C134.547,-140 148.776,-140 161.377,-140"/>
<polygon fill="black" stroke="black" points="161.494,-143.5 171.494,-140 161.494,-136.5 161.494,-143.5"/>
<text text-anchor="middle" x="147.063" y="-142.8" font-family="Times,serif" font-size="14.00">&#39;&gt;&#39;</text>
</g>
<!-- 7 -->
<g id="node6" class="node"><title>7</title>
<ellipse fill="none" stroke="black" cx="1359.93" cy="-128" rx="23.5" ry="23.5"/>
<ellipse fill="none" stroke="black" cx="1359.93" cy="-128" rx="27.5" ry="27.5"/>
<text text-anchor="middle" x="1359.93" y="-123.8" font-family="Times,serif" font-size="14.00">7</text>
</g>
<!-- 7&#45;&gt;eof_7 -->
<g id="edge25" class="edge"><title>7&#45;&gt;eof_7</title>
<path fill="none" stroke="black" d="M1386.1,-137.446C1392.35,-139.523 1399.08,-141.537 1405.43,-143 1464.99,-156.712 1538.27,-162.524 1565.86,-164.333"/>
<polygon fill="black" stroke="black" points="1565.76,-167.833 1575.95,-164.943 1566.18,-160.846 1565.76,-167.833"/>
<text text-anchor="middle" x="1469" y="-164.8" font-family="Times,serif" font-size="14.00">EOF / yield</text>
</g>
<!-- 7&#45;&gt;7 -->
<g id="edge15" class="edge"><title>7&#45;&gt;7</title>
<path fill="none" stroke="black" d="M1351.71,-154.639C1351.35,-164.939 1354.09,-173.5 1359.93,-173.5 1363.67,-173.5 1366.14,-169.987 1367.34,-164.753"/>
<polygon fill="black" stroke="black" points="1370.84,-164.887 1368.15,-154.639 1363.86,-164.328 1370.84,-164.887"/>
<text text-anchor="middle" x="1359.93" y="-176.3" font-family="Times,serif" font-size="14.00">&#39;\t&#39;, &#39;\v&#39;..&#39;\r&#39;, SP</text>
</g>
<!-- 7&#45;&gt;7 -->
<g id="edge16" class="edge"><title>7&#45;&gt;7</title>
<path fill="none" stroke="black" d="M1345.85,-151.777C1340.03,-171.263 1344.72,-191.5 1359.93,-191.5 1372.53,-191.5 1377.91,-177.622 1376.08,-161.784"/>
<polygon fill="black" stroke="black" points="1379.47,-160.86 1374.01,-151.777 1372.61,-162.278 1379.47,-160.86"/>
<text text-anchor="middle" x="1359.93" y="-194.3" font-family="Times,serif" font-size="14.00">&#39;\n&#39; / count_line</text>
</g>
<!-- 8 -->
<g id="node7" class="node"><title>8</title>
<ellipse fill="none" stroke="black" cx="1578.06" cy="-70" rx="23.5" ry="23.5"/>
<ellipse fill="none" stroke="black" cx="1578.06" cy="-70" rx="27.5" ry="27.5"/>
<text text-anchor="middle" x="1578.06" y="-65.8" font-family="Times,serif" font-size="14.00">8</text>
</g>
<!-- 7&#45;&gt;8 -->
<g id="edge18" class="edge"><title>7&#45;&gt;8</title>
<path fill="none" stroke="black" d="M1387.36,-125.414C1432.18,-120.911 1519.51,-111.578 1532.56,-106 1538.68,-103.386 1544.64,-99.6779 1550.1,-95.6264"/>
<polygon fill="black" stroke="black" points="1552.64,-98.0779 1558.24,-89.0849 1548.25,-92.622 1552.64,-98.0779"/>
<text text-anchor="middle" x="1469" y="-126.8" font-family="Times,serif" font-size="14.00">DEF / mark</text>
</g>
<!-- 7&#45;&gt;1 -->
<g id="edge17" class="edge"><title>7&#45;&gt;1</title>
<path fill="none" stroke="black" d="M1342.21,-149.623C1334.56,-158.263 1324.87,-167.65 1314.43,-174 1242.89,-217.503 1217.68,-228 1133.95,-228 451.993,-228 451.993,-228 451.993,-228 365.168,-228 270.338,-182.158 224.289,-156.647"/>
<polygon fill="black" stroke="black" points="225.914,-153.546 215.484,-151.686 222.478,-159.644 225.914,-153.546"/>
<text text-anchor="middle" x="734.261" y="-230.8" font-family="Times,serif" font-size="14.00">&#39;&gt;&#39; / yield</text>
</g>
<!-- 8&#45;&gt;eof_8 -->
<g id="edge26" class="edge"><title>8&#45;&gt;eof_8</title>
<path fill="none" stroke="black" d="M1605.6,-70C1643.38,-70 1711.05,-70 1737.69,-70"/>
<polygon fill="black" stroke="black" points="1737.81,-73.5001 1747.81,-70 1737.81,-66.5001 1737.81,-73.5001"/>
<text text-anchor="middle" x="1676.83" y="-72.8" font-family="Times,serif" font-size="14.00">EOF / letters, yield</text>
</g>
<!-- 8&#45;&gt;7 -->
<g id="edge19" class="edge"><title>8&#45;&gt;7</title>
<path fill="none" stroke="black" d="M1550.28,-70.8005C1508.68,-72.3787 1430.69,-76.7721 1405.43,-88 1398.51,-91.0754 1391.93,-95.6413 1386.05,-100.6"/>
<polygon fill="black" stroke="black" points="1383.52,-98.1712 1378.5,-107.502 1388.24,-103.337 1383.52,-98.1712"/>
<text text-anchor="middle" x="1469" y="-90.8" font-family="Times,serif" font-size="14.00">&#39;\t&#39;, &#39;\v&#39;..&#39;\r&#39;, SP / letters</text>
</g>
<!-- 8&#45;&gt;7 -->
<g id="edge20" class="edge"><title>8&#45;&gt;7</title>
<path fill="none" stroke="black" d="M1552.47,-59.3714C1517.39,-45.9597 1452.06,-27.6307 1405.43,-54 1390.66,-62.354 1380.25,-77.7898 1373.23,-92.4106"/>
<polygon fill="black" stroke="black" points="1369.92,-91.255 1369.1,-101.818 1376.33,-94.0703 1369.92,-91.255"/>
<text text-anchor="middle" x="1469" y="-56.8" font-family="Times,serif" font-size="14.00">&#39;\n&#39; / letters, count_line</text>
</g>
<!-- 8&#45;&gt;8 -->
<g id="edge22" class="edge"><title>8&#45;&gt;8</title>
<path fill="none" stroke="black" d="M1560.69,-91.5333C1557.15,-103.945 1562.94,-115.5 1578.06,-115.5 1588.93,-115.5 1594.97,-109.531 1596.2,-101.565"/>
<polygon fill="black" stroke="black" points="1599.69,-101.234 1595.42,-91.5333 1592.71,-101.773 1599.69,-101.234"/>
<text text-anchor="middle" x="1578.06" y="-118.3" font-family="Times,serif" font-size="14.00">DEF</text>
</g>
<!-- 8&#45;&gt;1 -->
<g id="edge21" class="edge"><title>8&#45;&gt;1</title>
<path fill="none" stroke="black" d="M1556.94,-52.2488C1549.68,-46.6356 1541.15,-40.8883 1532.56,-37 1461.48,-4.81109 1438.96,-0 1360.93,-0 451.993,-0 451.993,-0 451.993,-0 355.913,-0 261.683,-76.8692 219.316,-116.689"/>
<polygon fill="black" stroke="black" points="216.828,-114.225 212.019,-123.666 221.666,-119.284 216.828,-114.225"/>
<text text-anchor="middle" x="861.233" y="-2.8" font-family="Times,serif" font-size="14.00">&#39;&gt;&#39; / letters, yield</text>
</g>
<!-- 2 -->
<g id="node9" class="node"><title>2</title>
<ellipse fill="none" stroke="black" cx="452.993" cy="-140" rx="23.5" ry="23.5"/>
<text text-anchor="middle" x="452.993" y="-135.8" font-family="Times,serif" font-size="14.00">2</text>
</g>
<!-- 1&#45;&gt;2 -->
<g id="edge1" class="edge"><title>1&#45;&gt;2</title>
<path fill="none" stroke="black" d="M218.748,-140C264.19,-140 366.443,-140 419.171,-140"/>
<polygon fill="black" stroke="black" points="419.329,-143.5 429.329,-140 419.329,-136.5 419.329,-143.5"/>
<text text-anchor="middle" x="324.013" y="-142.8" font-family="Times,serif" font-size="14.00">&#45;128..&#39;\b&#39;, 14..31, &#39;!&#39;..127 / mark</text>
</g>
<!-- 2&#45;&gt;7 -->
<g id="edge4" class="edge"><title>2&#45;&gt;7</title>
<path fill="none" stroke="black" d="M475.256,-148.224C511.435,-161.455 587.54,-186 654.246,-186 654.246,-186 654.246,-186 1133.95,-186 1203.55,-186 1281.54,-159.648 1324.99,-142.469"/>
<polygon fill="black" stroke="black" points="1326.53,-145.623 1334.49,-138.638 1323.91,-139.13 1326.53,-145.623"/>
<text text-anchor="middle" x="861.233" y="-188.8" font-family="Times,serif" font-size="14.00">&#39;\n&#39; / identifier, count_line</text>
</g>
<!-- 2&#45;&gt;2 -->
<g id="edge2" class="edge"><title>2&#45;&gt;2</title>
<path fill="none" stroke="black" d="M436.261,-157.052C430.814,-169.3 436.391,-181.5 452.993,-181.5 464.925,-181.5 471.162,-175.197 471.704,-167.104"/>
<polygon fill="black" stroke="black" points="475.091,-166.187 469.724,-157.052 468.222,-167.539 475.091,-166.187"/>
<text text-anchor="middle" x="452.993" y="-184.3" font-family="Times,serif" font-size="14.00">&#45;128..&#39;\b&#39;, 14..31, &#39;!&#39;..127</text>
</g>
<!-- 3 -->
<g id="node10" class="node"><title>3</title>
<ellipse fill="none" stroke="black" cx="655.246" cy="-56" rx="23.5" ry="23.5"/>
<text text-anchor="middle" x="655.246" y="-51.8" font-family="Times,serif" font-size="14.00">3</text>
</g>
<!-- 2&#45;&gt;3 -->
<g id="edge3" class="edge"><title>2&#45;&gt;3</title>
<path fill="none" stroke="black" d="M472.295,-125.801C479.029,-121 486.875,-115.879 494.493,-112 536.793,-90.458 589.31,-73.8068 622.313,-64.4502"/>
<polygon fill="black" stroke="black" points="623.608,-67.723 632.305,-61.6717 621.733,-60.9789 623.608,-67.723"/>
<text text-anchor="middle" x="554.119" y="-114.8" font-family="Times,serif" font-size="14.00">&#39;\t&#39;, &#39;\v&#39;, SP / identifier</text>
</g>
<!-- 5 -->
<g id="node11" class="node"><title>5</title>
<ellipse fill="none" stroke="black" cx="1132.95" cy="-128" rx="23.5" ry="23.5"/>
<text text-anchor="middle" x="1132.95" y="-123.8" font-family="Times,serif" font-size="14.00">5</text>
</g>
<!-- 2&#45;&gt;5 -->
<g id="edge5" class="edge"><title>2&#45;&gt;5</title>
<path fill="none" stroke="black" d="M476.549,-139.601C576.587,-137.83 980.455,-130.681 1099.05,-128.582"/>
<polygon fill="black" stroke="black" points="1099.37,-132.077 1109.3,-128.401 1099.24,-125.078 1099.37,-132.077"/>
<text text-anchor="middle" x="734.261" y="-138.8" font-family="Times,serif" font-size="14.00">&#39;\r&#39; / identifier</text>
</g>
<!-- 3&#45;&gt;3 -->
<g id="edge6" class="edge"><title>3&#45;&gt;3</title>
<path fill="none" stroke="black" d="M641.535,-75.21C638.488,-86.6927 643.058,-97.5 655.246,-97.5 663.624,-97.5 668.403,-92.3919 669.581,-85.468"/>
<polygon fill="black" stroke="black" points="673.058,-84.9786 668.956,-75.21 666.071,-85.4043 673.058,-84.9786"/>
<text text-anchor="middle" x="655.246" y="-100.3" font-family="Times,serif" font-size="14.00">&#39;\t&#39;, &#39;\v&#39;, SP</text>
</g>
<!-- 4 -->
<g id="node12" class="node"><title>4</title>
<ellipse fill="none" stroke="black" cx="861.233" cy="-56" rx="23.5" ry="23.5"/>
<text text-anchor="middle" x="861.233" y="-51.8" font-family="Times,serif" font-size="14.00">4</text>
</g>
<!-- 3&#45;&gt;4 -->
<g id="edge7" class="edge"><title>3&#45;&gt;4</title>
<path fill="none" stroke="black" d="M678.855,-56C714.926,-56 785.663,-56 827.341,-56"/>
<polygon fill="black" stroke="black" points="827.522,-59.5001 837.522,-56 827.522,-52.5001 827.522,-59.5001"/>
<text text-anchor="middle" x="734.261" y="-58.8" font-family="Times,serif" font-size="14.00">DEF / mark</text>
</g>
<!-- 5&#45;&gt;7 -->
<g id="edge11" class="edge"><title>5&#45;&gt;7</title>
<path fill="none" stroke="black" d="M1156.76,-128C1195.7,-128 1275.35,-128 1322.21,-128"/>
<polygon fill="black" stroke="black" points="1322.25,-131.5 1332.25,-128 1322.25,-124.5 1322.25,-131.5"/>
<text text-anchor="middle" x="1271.47" y="-130.8" font-family="Times,serif" font-size="14.00">&#39;\n&#39; / count_line</text>
</g>
<!-- 4&#45;&gt;7 -->
<g id="edge8" class="edge"><title>4&#45;&gt;7</title>
<path fill="none" stroke="black" d="M884.88,-55.7962C940.738,-55.688 1089.35,-57.8027 1210.51,-81 1250.58,-88.6714 1294.99,-103.635 1324.7,-114.625"/>
<polygon fill="black" stroke="black" points="1323.59,-117.948 1334.18,-118.184 1326.05,-111.394 1323.59,-117.948"/>
<text text-anchor="middle" x="1132.95" y="-83.8" font-family="Times,serif" font-size="14.00">&#39;\n&#39; / description, count_line</text>
</g>
<!-- 4&#45;&gt;5 -->
<g id="edge9" class="edge"><title>4&#45;&gt;5</title>
<path fill="none" stroke="black" d="M884.305,-61.8921C931.937,-74.6075 1044.53,-104.665 1099.97,-119.465"/>
<polygon fill="black" stroke="black" points="1099.38,-122.93 1109.95,-122.128 1101.19,-116.167 1099.38,-122.93"/>
<text text-anchor="middle" x="994.036" y="-105.8" font-family="Times,serif" font-size="14.00">&#39;\r&#39; / description</text>
</g>
<!-- 4&#45;&gt;4 -->
<g id="edge10" class="edge"><title>4&#45;&gt;4</title>
<path fill="none" stroke="black" d="M842.13,-70.0313C832.225,-83.2074 838.592,-97.5 861.233,-97.5 878.567,-97.5 886.362,-89.1219 884.619,-79.2813"/>
<polygon fill="black" stroke="black" points="887.714,-77.6352 880.336,-70.0313 881.361,-80.5764 887.714,-77.6352"/>
<text text-anchor="middle" x="861.233" y="-100.3" font-family="Times,serif" font-size="14.00">DEF</text>
</g>
</g>
</svg>
